<?xml version="1.0" standalone="no"?>
<!DOCTYPE svg PUBLIC "-//W3C//DTD SVG 20010904//EN"
 "http://www.w3.org/TR/2001/REC-SVG-20010904/DTD/svg10.dtd">
<svg version="1.0" xmlns="http://www.w3.org/2000/svg"
 width="1200.000000pt" height="1653.000000pt" viewBox="0 0 1200.000000 1653.000000"
 preserveAspectRatio="xMidYMid meet">

<g transform="translate(0.000000,1653.000000) scale(0.100000,-0.100000)"
fill="#000000" stroke="none">
<path d="M5800 16414 c-143 -9 -281 -27 -393 -50 -1005 -204 -1826 -685 -2183
-1280 -35 -59 -75 -143 -93 -195 l-31 -92 47 -56 c26 -31 100 -117 165 -192
l117 -137 -87 -4 c-169 -9 -242 -84 -242 -249 0 -83 26 -157 146 -418 137
-297 176 -402 154 -416 -6 -3 -20 1 -32 9 -34 24 -85 20 -113 -9 -39 -38 -31
-117 18 -165 28 -27 29 -31 17 -59 -7 -17 -9 -42 -6 -57 4 -14 48 -68 98 -120
l90 -93 -5 -2163 c-5 -1551 -9 -2180 -18 -2223 -6 -33 -13 -137 -16 -232 l-4
-172 -1379 -3 -1379 -3 -41 -40 c-51 -49 -75 -91 -58 -101 33 -21 914 -24
5538 -24 4534 0 5517 4 5536 23 11 10 -5 41 -44 86 -37 42 -42 45 -108 52 -38
5 -661 8 -1385 8 l-1316 1 -6 168 c-4 92 -11 185 -16 207 -13 52 -29 1382 -37
3071 l-7 1341 75 79 c99 104 108 120 108 175 0 39 5 51 36 83 34 35 36 40 30
84 -12 92 -60 121 -135 83 -49 -26 -51 -26 -51 -1 0 38 43 145 138 345 143
301 182 410 182 501 0 139 -120 250 -267 247 -39 -1 -63 2 -63 9 0 13 66 95
213 267 59 69 107 130 107 138 0 22 -76 190 -119 262 -164 277 -455 544 -834
765 -118 69 -407 210 -537 261 -289 115 -628 211 -938 266 -102 19 -163 22
-467 24 -192 1 -375 1 -405 -1z m730 -179 c874 -106 1783 -542 2194 -1052 69
-86 189 -291 183 -314 -2 -8 -66 -91 -143 -182 l-138 -167 -2535 0 -2536 1
-103 123 c-159 189 -157 186 -142 241 29 103 208 337 386 504 484 453 1308
789 2116 860 147 14 558 5 718 -14z m1612 -2097 c3 -157 8 -220 19 -238 11
-21 14 -244 19 -1390 8 -2051 -2 -4078 -19 -4110 -10 -17 -16 -76 -19 -192
l-5 -168 -2033 0 -2034 0 0 149 c0 110 -5 168 -17 218 -17 64 -18 232 -18
2738 0 2506 1 2675 18 2749 13 59 17 123 17 260 0 101 3 186 7 189 3 4 918 7
2033 7 l2027 0 5 -212z m-4222 22 l0 -120 -182 2 -183 3 -3 118 -3 117 186 0
185 0 0 -120z m4718 3 l-3 -118 -182 -3 -183 -2 0 120 0 120 185 0 186 0 -3
-117z m-4800 -765 l-3 -493 -87 -3 -88 -3 0 496 0 495 90 0 90 0 -2 -492z
m4712 -3 l0 -495 -95 0 -95 0 0 495 0 495 95 0 95 0 0 -495z m-4690 -2820 l0
-2175 -110 0 -110 0 0 2175 0 2175 110 0 110 0 0 -2175z m4710 0 l0 -2175
-105 0 -105 0 0 2175 0 2175 105 0 105 0 0 -2175z m-4650 -2445 l0 -120 -182
2 -183 3 -3 118 -3 117 186 0 185 0 0 -120z m4718 3 l-3 -118 -182 -3 -183 -2
0 120 0 120 185 0 186 0 -3 -117z"/>
<path d="M5880 16049 c-234 -7 -361 -23 -550 -69 -162 -40 -505 -155 -655
-219 -593 -256 -965 -600 -1039 -963 -9 -42 -16 -84 -16 -93 0 -13 254 -15
2500 -15 l2500 0 -5 28 c-4 15 -18 64 -32 110 -125 403 -680 813 -1436 1061
-187 61 -445 127 -575 146 -115 17 -395 22 -692 14z m491 -99 c495 -50 1127
-311 1484 -612 173 -147 302 -293 361 -410 l35 -70 -2125 4 c-1169 2 -2128 7
-2132 11 -11 11 49 129 102 204 308 433 1079 810 1781 872 133 12 378 12 494
1z"/>
<path d="M5760 15713 c-80 -8 -147 -16 -148 -18 -19 -18 -29 -185 -12 -185 5
0 18 17 27 37 21 43 43 50 169 55 l79 3 -2 -34 c-1 -20 -32 -94 -77 -181 -109
-214 -148 -344 -114 -378 16 -16 93 -15 105 1 6 6 14 46 17 87 10 103 28 179
86 356 32 96 51 173 52 210 4 71 17 67 -182 47z"/>
<path d="M6195 15704 c-76 -39 -115 -113 -115 -218 0 -158 106 -244 233 -191
46 19 57 19 57 0 0 -58 -111 -184 -198 -224 -54 -25 -66 -52 -28 -59 29 -6
154 61 226 121 112 93 164 228 140 365 -6 36 -18 79 -27 96 -20 40 -71 94
-105 112 -36 19 -145 18 -183 -2z m138 -48 c46 -42 74 -137 62 -208 -8 -46
-58 -108 -87 -108 -30 0 -94 69 -107 115 -6 22 -11 68 -11 103 0 57 3 67 29
93 37 36 78 38 114 5z"/>
<path d="M5280 15640 c-41 -22 -83 -49 -95 -61 l-20 -21 40 4 40 3 7 -45 c9
-61 8 -312 -1 -379 -6 -43 -14 -59 -37 -78 l-29 -23 130 0 c130 0 176 10 145
30 -8 5 -25 10 -37 10 -12 0 -24 8 -27 18 -2 9 -7 136 -11 282 -6 259 -9 300
-23 300 -4 0 -41 -18 -82 -40z"/>
<path d="M6894 15662 c-48 -40 -212 -260 -278 -375 -32 -54 -25 -77 25 -77 44
0 174 -21 190 -31 10 -6 16 -37 19 -101 l5 -93 35 3 c51 4 62 21 69 104 7 77
14 98 35 98 26 0 47 37 44 77 -3 36 -4 38 -35 35 -40 -4 -40 -4 -46 196 -5
178 -15 204 -63 164z m-44 -262 l0 -110 -63 0 c-38 0 -71 6 -82 14 -18 13 -18
15 -2 40 21 32 136 166 142 166 3 0 5 -49 5 -110z"/>
<path d="M4440 11190 l0 -2770 1668 2 1667 3 0 2765 0 2765 -1667 3 -1668 2 0
-2770z m2690 2613 l273 -6 -124 -62 c-68 -34 -251 -122 -407 -195 l-282 -133
2 -2229 3 -2230 365 -162 c201 -89 383 -171 404 -183 l39 -20 -671 -7 c-369
-4 -953 -4 -1298 0 -572 6 -624 8 -598 22 16 9 191 89 389 178 l360 161 7
1569 c4 863 7 1870 5 2239 l-2 669 -393 191 -393 190 338 5 c552 9 1689 10
1983 3z m468 -1239 l-3 -386 -424 -129 c-234 -71 -426 -129 -428 -129 -2 0 -3
316 -3 703 l0 703 428 196 427 196 3 -384 c1 -211 1 -558 0 -770z m-2540 951
l413 -188 -3 -671 c-3 -722 -3 -716 -54 -716 -14 0 -144 38 -287 84 -144 47
-324 104 -400 127 l-138 43 3 745 c2 411 7 752 12 759 4 8 16 12 25 9 9 -2
202 -89 429 -192z m-318 -1503 c58 -16 243 -71 411 -122 l307 -94 7 -201 c4
-110 5 -399 3 -642 -2 -377 -5 -444 -18 -457 -13 -12 -344 -116 -745 -234
l-100 -30 -8 87 c-10 114 -4 1681 7 1704 11 22 12 22 136 -11z m2855 -54 c9
-113 2 -1700 -8 -1715 -9 -14 15 -20 -442 119 -181 55 -345 105 -362 110 l-33
9 0 654 0 654 68 21 c37 12 209 64 382 116 173 53 326 99 340 104 46 16 48 13
55 -72z m-2134 -1643 c4 -16 7 -306 8 -643 l1 -613 -72 -32 c-270 -122 -789
-339 -795 -333 -10 10 -10 1298 0 1357 l8 46 227 72 c473 149 578 180 597 178
13 -1 22 -12 26 -32z m1619 -66 c146 -43 322 -95 392 -116 l128 -38 0 -702 c0
-556 -3 -703 -12 -702 -7 0 -200 82 -428 183 l-415 182 0 625 c0 343 4 632 8
642 8 21 -12 26 327 -74z"/>
<path d="M10085 7005 c-413 -67 -754 -334 -885 -693 -58 -160 -63 -451 -10
-657 50 -196 194 -388 389 -519 138 -92 335 -184 701 -325 264 -103 417 -169
480 -209 134 -85 266 -247 316 -389 22 -62 24 -84 24 -253 0 -269 -29 -358
-160 -485 -119 -114 -262 -164 -495 -172 -303 -11 -508 65 -718 266 -194 185
-326 413 -437 749 l-38 117 -106 3 c-105 3 -106 2 -106 -20 0 -107 32 -1266
35 -1275 3 -9 31 -13 93 -13 108 0 119 7 187 115 25 41 48 75 50 75 1 0 63
-28 136 -61 172 -79 401 -155 531 -175 143 -23 505 -15 628 14 596 140 970
601 947 1167 -4 92 -13 158 -30 225 -103 398 -365 607 -1127 900 -552 211
-742 361 -817 640 -12 45 -17 105 -17 196 l-1 131 47 95 c39 78 61 107 121
165 86 82 190 138 282 153 76 13 260 12 347 0 250 -36 484 -248 640 -576 45
-97 154 -406 173 -491 l7 -33 104 0 104 0 0 635 0 635 -97 0 c-58 0 -108 -5
-122 -13 -14 -6 -39 -35 -55 -62 -17 -28 -38 -61 -47 -73 l-16 -22 -134 64
c-308 146 -415 175 -669 181 -114 3 -193 0 -255 -10z"/>
<path d="M580 6846 l0 -94 28 -6 c15 -3 47 -8 72 -11 85 -12 229 -54 287 -84
119 -62 131 -83 144 -243 6 -78 8 -629 6 -1464 -4 -1372 -6 -1425 -43 -1482
-37 -56 -130 -92 -293 -112 -144 -18 -181 -29 -192 -57 -11 -30 -12 -133 0
-151 7 -11 281 -13 1562 -9 855 2 1564 7 1575 11 20 7 23 18 28 104 45 669 56
860 56 936 l0 89 -80 -6 c-45 -3 -87 -10 -94 -16 -7 -6 -26 -41 -41 -78 -79
-189 -232 -467 -327 -596 -92 -124 -163 -165 -324 -189 -127 -18 -927 -18
-1006 0 -79 18 -145 65 -180 129 -27 48 -30 65 -38 190 -5 76 -11 399 -14 717
l-5 579 282 -6 c155 -4 311 -12 347 -17 212 -34 321 -178 417 -555 l18 -70 93
-3 92 -3 0 746 0 745 -93 0 -94 0 -32 -122 c-32 -127 -108 -298 -155 -350 -46
-51 -118 -98 -184 -119 -61 -20 -96 -22 -372 -28 -168 -3 -308 -5 -312 -3 -5
2 -8 340 -8 753 l0 749 328 0 c180 -1 427 -5 549 -9 277 -10 285 -13 426 -161
111 -115 196 -240 272 -397 61 -128 58 -125 180 -121 l80 3 0 450 0 450 -1477
3 -1478 2 0 -94z"/>
<path d="M4330 6846 l0 -94 95 -22 c69 -15 134 -41 234 -91 117 -58 148 -79
193 -127 61 -67 100 -140 131 -250 l22 -77 0 -1115 c0 -1149 -3 -1245 -41
-1394 -48 -188 -126 -243 -454 -326 l-105 -26 -8 -75 c-4 -41 -5 -84 -2 -96
l5 -23 775 0 775 0 0 89 c0 59 -4 92 -12 98 -7 6 -56 20 -108 33 -138 33 -247
68 -310 100 -148 75 -212 221 -230 525 -10 162 -10 1832 0 2068 l5 127 111
-147 c61 -82 569 -767 1128 -1523 560 -756 1026 -1381 1034 -1387 16 -14 206
-19 236 -7 15 6 16 139 16 1413 0 1395 7 1738 34 1871 34 162 111 242 286 298
53 17 251 62 274 62 3 0 6 43 6 95 l0 95 -772 -2 -773 -3 0 -82 c0 -45 5 -87
10 -92 6 -5 54 -20 109 -31 190 -41 349 -105 406 -161 64 -65 107 -193 129
-384 27 -230 37 -2105 11 -2105 -4 0 -178 228 -387 508 -364 487 -606 814
-1375 1857 l-353 480 -95 6 c-52 4 -299 7 -547 8 l-453 1 0 -94z"/>
<path d="M975 2351 c-39 -25 -153 -141 -137 -141 20 0 125 50 160 76 25 20 32
32 30 52 -4 33 -16 36 -53 13z"/>
<path d="M2528 2127 c-139 -51 -215 -154 -225 -305 -6 -90 8 -186 37 -242 21
-41 102 -120 151 -146 53 -29 236 -27 301 3 66 30 132 102 159 171 34 87 38
220 9 313 -18 61 -30 81 -78 128 -98 98 -226 126 -354 78z m203 -32 c46 -24
97 -91 116 -152 26 -84 23 -258 -5 -335 -27 -77 -54 -113 -109 -145 -181 -105
-354 109 -315 388 20 139 72 223 158 255 43 15 112 11 155 -11z"/>
<path d="M6555 2136 c-144 -46 -228 -145 -244 -289 -23 -203 45 -345 196 -414
49 -23 64 -25 151 -21 114 5 175 30 236 98 136 151 120 451 -31 566 -88 67
-211 91 -308 60z m143 -28 c70 -17 125 -78 153 -168 18 -61 21 -88 16 -183 -6
-130 -23 -187 -74 -246 -44 -53 -84 -73 -142 -74 -87 -1 -154 51 -203 159 -20
43 -23 64 -23 179 1 112 4 138 24 189 28 71 84 130 137 144 53 14 58 14 112 0z"/>
<path d="M9583 2095 c-17 -33 -63 -141 -103 -240 -100 -250 -145 -340 -191
-386 -21 -21 -39 -44 -39 -49 0 -14 232 -9 237 5 1 6 -14 19 -35 30 -32 17
-37 25 -40 60 -2 22 1 57 8 77 17 58 48 69 183 66 l112 -3 29 -77 c31 -82 30
-128 -2 -128 -9 0 -24 -5 -32 -10 -13 -9 -13 -11 0 -20 18 -12 247 -13 254 -2
3 5 -8 22 -25 38 -41 39 -84 126 -189 385 -49 119 -99 238 -113 265 l-25 48
-29 -59z m59 -256 c26 -68 48 -127 48 -131 0 -10 -100 -10 -164 -2 -54 8 -56
17 -25 96 42 109 72 169 83 165 6 -2 32 -59 58 -128z"/>
<path d="M1680 2127 c-98 -28 -156 -88 -200 -204 -76 -203 13 -447 181 -497
61 -18 176 -21 233 -5 46 13 120 79 147 131 28 54 3 50 -45 -8 -47 -56 -122
-94 -187 -94 -78 0 -168 71 -213 170 -17 37 -20 64 -20 150 1 146 27 232 88
288 110 101 216 68 308 -96 l43 -77 3 119 c1 65 1 120 -1 123 -2 2 -69 6 -148
8 -101 4 -157 1 -189 -8z"/>
<path d="M636 2121 c-17 -7 -15 -10 19 -27 30 -14 41 -27 48 -54 13 -52 4
-520 -11 -546 -6 -12 -28 -32 -49 -44 l-38 -23 25 -9 c27 -10 554 -7 565 3 3
4 5 46 3 94 l-3 88 -40 -54 c-58 -78 -101 -99 -203 -99 -46 0 -92 5 -104 11
-35 19 -48 70 -48 194 l0 115 52 0 c78 0 135 -32 160 -88 17 -38 22 -42 30
-28 13 22 12 230 0 253 -9 16 -12 14 -29 -16 -40 -73 -44 -75 -132 -79 l-81
-4 0 147 0 148 117 -8 c65 -3 126 -11 135 -16 10 -6 30 -29 45 -52 49 -79 63
-72 63 29 l0 74 -252 -1 c-139 0 -262 -4 -272 -8z"/>
<path d="M3273 2123 c-21 -8 -15 -20 17 -32 18 -6 34 -21 40 -36 6 -15 10
-138 10 -285 0 -147 -4 -270 -10 -285 -6 -15 -22 -30 -40 -36 -16 -6 -30 -14
-30 -19 0 -15 68 -20 305 -20 l243 0 7 58 c8 71 9 141 2 148 -3 3 -13 -7 -24
-22 -37 -54 -105 -122 -133 -134 -18 -7 -58 -11 -100 -8 -110 6 -104 -10 -108
313 -2 193 0 280 8 295 6 12 27 28 46 36 19 8 34 19 34 24 0 10 -243 13 -267
3z"/>
<path d="M4075 2120 l-20 -8 20 -7 c58 -20 64 -25 72 -62 12 -56 6 -484 -7
-532 -9 -33 -19 -45 -45 -58 -75 -36 -40 -43 216 -43 113 0 233 3 266 6 l61 7
7 84 c7 87 2 112 -17 78 -22 -38 -94 -108 -125 -121 -18 -8 -68 -14 -112 -14
-129 0 -150 32 -151 229 l0 93 70 -4 c83 -4 115 -24 147 -89 19 -39 22 -42 30
-24 11 26 10 241 -1 252 -4 4 -15 -2 -25 -15 -54 -77 -53 -77 -140 -80 l-82
-4 3 143 3 144 115 -2 c63 -2 124 -8 135 -13 11 -6 35 -33 53 -60 17 -28 36
-50 41 -50 13 0 21 38 21 103 l0 57 -257 -1 c-142 0 -267 -4 -278 -9z"/>
<path d="M5311 2123 c-8 -3 0 -13 24 -27 78 -43 95 -100 95 -310 0 -143 -13
-243 -36 -287 -8 -16 -33 -38 -57 -50 -40 -21 -41 -22 -18 -31 36 -13 263 -6
268 8 2 7 -23 22 -57 35 l-60 24 0 220 c0 215 4 269 20 263 5 -2 84 -104 175
-228 92 -124 188 -249 214 -279 44 -52 46 -53 52 -30 4 13 8 98 8 189 1 91 6
218 11 283 10 133 25 172 79 199 l33 17 -33 6 c-19 3 -83 5 -144 3 l-110 -3
55 -29 c30 -15 57 -30 60 -33 5 -4 18 -465 14 -472 -2 -2 -84 106 -183 240
-245 331 -212 299 -312 298 -46 0 -90 -3 -98 -6z"/>
<path d="M7348 2123 c-27 -2 -48 -6 -48 -9 0 -2 9 -13 19 -23 14 -14 21 -41
26 -107 8 -97 1 -480 -9 -505 -4 -9 -24 -24 -44 -34 -33 -16 -35 -18 -17 -26
24 -9 210 -12 254 -3 41 9 39 22 -5 30 -50 9 -61 34 -69 155 -8 114 0 149 34
149 32 0 68 -37 170 -175 55 -73 110 -140 123 -149 25 -18 153 -23 163 -7 3 6
-6 18 -21 28 -62 43 -131 115 -200 209 -41 56 -74 104 -74 107 0 3 17 15 38
28 88 53 122 102 122 177 0 62 -30 109 -85 137 -33 16 -64 19 -185 21 -80 1
-166 0 -192 -3z m282 -52 c87 -62 74 -217 -22 -261 -26 -12 -65 -20 -100 -20
l-58 0 0 148 c0 82 3 152 8 156 13 14 145 -4 172 -23z"/>
<path d="M8167 2111 c12 -10 37 -31 54 -46 l32 -26 -6 -252 c-4 -141 -11 -266
-18 -284 -6 -19 -25 -40 -45 -52 -20 -12 -32 -26 -29 -31 8 -12 235 -13 254
-1 11 7 2 17 -37 41 -54 33 -65 52 -77 144 -9 63 5 453 15 435 5 -8 46 -115
93 -239 47 -124 95 -247 107 -275 12 -27 26 -61 32 -75 10 -25 10 -24 34 23
14 26 60 134 104 240 43 106 90 219 106 252 l27 60 10 -35 c12 -44 2 -455 -12
-493 -6 -14 -25 -34 -43 -43 -44 -22 -45 -24 -28 -34 17 -11 222 -13 258 -4
30 9 28 20 -7 32 -16 6 -34 20 -41 31 -7 15 -10 108 -8 301 l3 279 34 35 35
36 -100 0 c-54 0 -104 -4 -110 -8 -6 -4 -17 -25 -24 -47 -44 -136 -177 -455
-190 -455 -9 0 -64 131 -145 346 -66 175 -52 164 -209 164 -90 -1 -91 -1 -69
-19z"/>
<path d="M10208 2123 c-27 -7 -22 -20 11 -31 51 -18 54 -33 54 -324 0 -232 -3
-271 -17 -293 -9 -14 -23 -25 -30 -25 -7 0 -19 -6 -25 -14 -18 -21 36 -26 300
-26 l236 0 7 38 c9 57 7 162 -3 162 -5 0 -29 -28 -53 -62 -57 -83 -88 -98
-200 -98 -48 0 -89 4 -92 9 -3 4 -9 145 -12 312 l-7 304 51 19 c29 10 52 22
52 27 0 9 -239 11 -272 2z"/>
<path d="M10979 2117 c6 -8 29 -20 52 -27 l42 -14 -6 -288 c-4 -185 -10 -294
-17 -308 -6 -12 -25 -26 -41 -32 -39 -14 -37 -24 9 -32 49 -8 443 -6 507 2
l50 7 0 90 c0 110 -12 116 -58 30 -44 -84 -73 -97 -199 -93 -134 4 -132 1
-136 178 l-4 140 62 0 c77 0 91 -8 135 -73 l35 -52 0 139 0 139 -35 -45 c-38
-51 -75 -68 -146 -68 l-49 0 0 145 0 145 48 -1 c26 0 78 -3 116 -8 69 -7 70
-8 121 -66 31 -35 57 -55 63 -51 8 4 12 36 12 82 l0 74 -286 0 c-238 0 -285
-2 -275 -13z"/>
<path d="M4404 1067 c-49 -34 -131 -123 -122 -132 9 -10 163 73 192 104 31 32
30 61 -3 61 -10 0 -40 -15 -67 -33z"/>
<path d="M722 850 c-81 -58 -115 -166 -77 -239 24 -48 93 -99 188 -138 49 -20
104 -51 122 -68 94 -88 42 -225 -84 -225 -90 1 -175 61 -207 147 -9 27 -21 52
-25 57 -17 20 -30 -39 -27 -127 l3 -92 39 2 c22 2 68 -7 103 -18 57 -20 69
-20 125 -9 79 15 127 39 166 84 52 60 64 133 33 201 -25 57 -69 90 -196 150
-113 53 -146 79 -164 128 -20 52 33 131 95 143 71 13 139 -35 187 -132 51
-102 74 -92 64 28 -9 106 -16 113 -137 127 -147 16 -162 15 -208 -19z"/>
<path d="M1690 855 c0 -2 11 -15 24 -28 27 -27 31 -60 41 -337 4 -91 11 -184
17 -207 13 -54 79 -117 140 -134 63 -17 204 -7 253 19 94 48 106 83 116 362 5
124 11 235 14 248 3 13 26 36 52 52 l47 30 -140 0 -139 0 62 -38 63 -37 0
-223 c0 -232 -5 -268 -48 -316 -28 -32 -113 -66 -164 -66 -44 0 -52 4 -114 62
l-66 62 6 195 c10 304 11 310 72 348 15 10 -6 12 -108 12 -71 1 -128 -1 -128
-4z"/>
<path d="M2970 852 c0 -5 15 -13 33 -18 l32 -10 0 -303 0 -303 -27 -23 c-16
-13 -28 -27 -28 -30 0 -3 55 -5 123 -4 98 0 118 2 103 12 -58 37 -57 34 -63
173 l-6 132 105 4 c96 3 109 6 146 32 22 15 53 46 69 69 24 36 28 52 28 109 0
75 -18 109 -76 143 -30 18 -55 20 -236 23 -121 2 -203 0 -203 -6z m250 -12
c70 -16 116 -40 131 -68 8 -14 14 -55 14 -93 0 -76 -18 -110 -75 -143 -35 -21
-135 -47 -144 -38 -3 3 -6 83 -6 179 0 194 -6 182 80 163z"/>
<path d="M4080 853 c0 -5 18 -18 40 -31 l40 -23 -2 -301 -3 -301 -35 -12 c-33
-11 -34 -12 -10 -18 14 -4 140 -7 282 -7 l256 0 12 70 c7 39 9 83 5 98 l-7 27
-27 -34 c-96 -125 -137 -147 -251 -139 -49 3 -66 10 -87 30 -24 24 -26 33 -31
158 l-5 133 72 -5 c61 -5 77 -10 101 -33 16 -15 34 -41 41 -58 l13 -31 7 24
c9 32 11 188 3 229 l-6 31 -29 -44 c-35 -55 -53 -65 -134 -73 l-66 -6 3 154 3
154 75 0 c41 0 88 -4 104 -8 16 -5 60 -38 98 -74 l68 -66 0 81 0 82 -265 0
c-146 0 -265 -3 -265 -7z"/>
<path d="M5277 854 c-4 -5 2 -16 15 -26 23 -17 23 -19 26 -290 4 -289 -2 -342
-38 -353 -49 -16 -11 -25 100 -25 73 0 120 4 120 10 0 6 -7 10 -15 10 -8 0
-24 9 -35 20 -17 17 -20 33 -20 124 0 115 10 156 38 156 24 0 85 -65 176 -187
41 -56 86 -109 100 -118 18 -12 43 -15 97 -13 l74 3 -32 18 c-37 20 -164 162
-219 244 -43 65 -41 72 32 120 55 36 94 98 94 147 -1 47 -33 110 -71 137 -33
23 -41 24 -234 27 -110 2 -204 0 -208 -4z m315 -39 c52 -34 71 -76 66 -140 -8
-91 -82 -155 -181 -155 l-47 0 0 166 0 167 62 -7 c41 -4 75 -15 100 -31z"/>
<path d="M6460 856 c0 -2 21 -16 47 -31 l46 -28 -7 -261 c-4 -143 -11 -278
-17 -298 -7 -27 -19 -43 -42 -55 l-32 -18 73 -3 c40 -2 103 -1 140 0 l67 4
-42 18 -43 19 0 307 0 308 40 16 c22 9 40 18 40 21 0 3 -61 5 -135 5 -74 0
-135 -2 -135 -4z"/>
<path d="M7356 851 c-3 -4 12 -16 34 -26 l40 -18 -1 -206 c0 -113 -4 -246 -8
-295 -7 -80 -11 -92 -35 -111 -14 -11 -26 -24 -26 -28 0 -4 125 -7 279 -7
l278 0 7 46 c9 69 7 134 -4 134 -5 0 -26 -24 -45 -52 -49 -74 -93 -101 -170
-106 -74 -5 -131 11 -147 41 -6 12 -13 79 -16 150 l-5 127 64 0 c78 0 100 -13
123 -75 28 -72 41 -52 44 71 3 110 -3 174 -16 174 -4 0 -14 -19 -22 -42 -19
-54 -73 -88 -142 -88 l-48 0 0 155 0 155 63 0 c107 -1 133 -12 209 -87 l68
-67 0 82 0 82 -259 0 c-143 0 -262 -4 -265 -9z"/>
<path d="M8521 837 c43 -36 49 -59 49 -179 2 -344 22 -435 108 -486 44 -25 55
-27 157 -27 127 1 168 15 214 74 54 69 55 72 61 316 4 150 10 238 18 252 6 12
27 33 44 47 l33 26 -123 0 c-127 0 -139 -5 -82 -35 59 -30 65 -59 64 -275 -1
-223 -10 -269 -60 -316 -60 -57 -179 -68 -251 -24 -62 38 -68 60 -71 309 -2
123 -1 239 3 257 3 19 18 45 33 59 l27 25 -125 0 -125 -1 26 -22z"/>
<path d="M9812 828 l35 -33 7 -142 c4 -79 4 -207 0 -285 l-7 -143 -34 -33 -34
-32 120 0 c67 0 121 3 121 6 0 3 -10 14 -22 24 -21 17 -23 28 -26 127 -3 107
7 151 34 160 21 7 77 -50 160 -163 111 -150 117 -154 218 -154 l81 0 -50 34
c-72 48 -196 199 -229 278 l-15 35 51 34 c28 19 60 50 70 69 24 45 24 141 1
181 -32 53 -75 63 -307 67 l-209 4 35 -34z m312 -8 c75 -46 97 -136 53 -215
-28 -51 -92 -85 -159 -85 l-48 0 0 166 0 167 60 -6 c35 -3 74 -14 94 -27z"/>
<path d="M11015 851 c-17 -7 -15 -10 18 -20 l37 -13 -2 -310 -3 -311 -35 -12
c-33 -11 -34 -12 -10 -18 14 -4 145 -7 293 -7 l267 0 0 91 c0 107 -6 110 -65
23 -52 -77 -89 -95 -190 -95 -85 0 -119 14 -135 57 -6 14 -10 79 -10 145 l0
119 63 0 c74 0 96 -12 134 -78 l28 -47 3 73 c2 39 2 105 0 145 l-3 72 -28 -47
c-34 -59 -69 -78 -144 -78 l-59 0 3 108 c2 59 6 126 9 150 l5 42 91 0 c111 0
142 -13 186 -80 51 -78 72 -66 72 41 l0 59 -252 -1 c-139 0 -262 -4 -273 -8z"/>
</g>
</svg>
