<?xml version="1.0" standalone="no"?>
<!DOCTYPE svg PUBLIC "-//W3C//DTD SVG 20010904//EN"
 "http://www.w3.org/TR/2001/REC-SVG-20010904/DTD/svg10.dtd">
<svg version="1.0" xmlns="http://www.w3.org/2000/svg"
 width="793.000000pt" height="1137.000000pt" viewBox="0 0 793.000000 1137.000000"
 preserveAspectRatio="xMidYMid meet">
<metadata>
Created by potrace 1.16, written by Peter Selinger 2001-2019
</metadata>
<g transform="translate(0.000000,1137.000000) scale(0.100000,-0.100000)"
fill="#000000" stroke="none">
<path d="M3710 11349 c-564 -64 -1077 -355 -1346 -765 -154 -235 -229 -463
-241 -739 -16 -370 109 -690 368 -947 123 -121 292 -235 494 -333 236 -115
456 -189 784 -265 532 -122 641 -151 871 -232 518 -182 894 -439 1095 -748 34
-52 75 -124 90 -160 41 -95 48 -96 40 -5 -34 428 -193 761 -505 1058 -286 272
-640 448 -1149 573 -860 210 -1140 374 -1228 718 -26 101 -25 344 1 436 75
261 248 466 503 594 71 35 72 36 75 78 l3 43 68 3 67 3 0 122 c0 133 12 175
64 230 29 29 96 67 119 67 16 0 22 32 32 160 3 41 8 85 11 98 4 21 2 22 -68
21 -40 -1 -107 -5 -148 -10z"/>
<path d="M3986 11243 c7 -65 13 -128 13 -140 1 -14 7 -23 16 -23 23 0 76 -29
108 -59 58 -53 71 -94 75 -233 l4 -128 64 0 64 0 0 -52 0 -53 86 -49 c261
-152 456 -434 499 -726 9 -55 15 -169 15 -272 l0 -178 400 0 400 0 0 203 c0
336 -39 568 -134 806 -200 496 -615 839 -1176 971 -94 22 -316 50 -395 50
l-51 0 12 -117z"/>
<path d="M3914 10940 c-12 -4 -31 -21 -43 -36 -19 -24 -21 -39 -21 -138 l0
-111 101 3 101 3 -4 115 c-3 106 -5 115 -28 138 -28 27 -75 39 -106 26z"/>
<path d="M3433 9898 c-47 -23 -53 -57 -53 -322 l0 -246 110 0 111 0 -3 261 -3
261 -33 29 c-35 31 -86 38 -129 17z"/>
<path d="M3894 9899 c-50 -25 -54 -49 -54 -318 l0 -251 110 0 110 0 0 240 c0
258 -5 292 -51 324 -26 18 -83 20 -115 5z"/>
<path d="M4331 9879 l-31 -31 0 -259 0 -259 110 0 110 0 0 233 c0 128 -5 249
-10 269 -23 81 -120 106 -179 47z"/>
<path d="M1990 9011 c0 -340 139 -650 415 -927 310 -311 704 -518 1324 -695
703 -200 1029 -435 1116 -801 50 -210 18 -487 -76 -668 -126 -244 -361 -400
-706 -471 -145 -30 -477 -37 -633 -14 -442 65 -855 267 -1172 573 l-77 74 -65
-131 c-36 -72 -66 -137 -66 -144 0 -19 113 -182 178 -256 140 -159 376 -333
607 -446 317 -155 619 -230 980 -242 673 -23 1267 170 1626 526 113 113 181
205 248 340 138 274 174 630 96 941 -116 465 -503 845 -1115 1096 -232 94
-379 140 -710 218 -690 164 -1162 354 -1528 613 -175 124 -362 341 -409 473
-10 28 -21 50 -25 50 -5 0 -8 -49 -8 -109z"/>
<path d="M204 2190 c-110 -44 -174 -130 -174 -234 0 -116 57 -176 250 -261
121 -54 169 -87 183 -128 9 -25 -16 -82 -45 -101 -61 -40 -175 -25 -271 36
-27 17 -52 27 -56 22 -4 -5 -24 -31 -45 -57 l-38 -48 21 -23 c37 -39 156 -88
241 -99 140 -18 260 27 325 123 25 38 30 57 33 117 8 138 -43 194 -253 283
-66 28 -132 63 -147 77 -50 48 -29 124 42 153 50 21 148 8 216 -29 32 -17 58
-30 59 -28 20 23 66 121 62 131 -3 8 -36 29 -72 47 -60 30 -77 33 -173 36 -89
3 -116 0 -158 -17z"/>
<path d="M1217 2199 c-124 -29 -245 -127 -303 -245 -32 -64 -37 -85 -42 -167
-5 -107 11 -179 59 -264 34 -59 123 -144 182 -174 243 -125 552 -31 665 201
129 265 -10 571 -293 645 -64 16 -206 19 -268 4z m178 -140 c77 -14 127 -40
176 -92 111 -118 104 -322 -14 -440 -58 -58 -117 -82 -207 -82 -62 0 -85 5
-132 28 -150 74 -217 259 -149 412 39 88 125 155 223 174 24 5 43 9 44 10 0 1
27 -4 59 -10z"/>
<path d="M4251 2194 c-148 -40 -275 -161 -316 -301 -19 -66 -22 -191 -5 -254
35 -130 123 -237 240 -293 252 -121 539 -28 658 212 33 68 37 84 40 172 6 154
-28 247 -129 347 -93 93 -200 133 -349 132 -47 0 -109 -7 -139 -15z m266 -154
c60 -26 127 -92 154 -153 33 -73 33 -191 1 -262 -29 -63 -83 -119 -147 -153
-42 -22 -63 -26 -130 -26 -67 0 -88 4 -131 27 -68 35 -112 80 -143 147 -36 75
-37 202 -3 271 73 148 248 213 399 149z"/>
<path d="M2100 1756 l0 -446 85 0 85 0 0 165 0 165 79 0 79 0 87 -157 c48 -87
90 -162 94 -166 4 -4 49 -6 98 -5 l91 3 -107 185 -106 185 45 30 c95 64 132
214 81 330 -29 65 -62 98 -125 127 -47 21 -67 23 -268 26 l-218 4 0 -446z
m403 284 c38 -18 57 -58 57 -117 0 -60 -29 -109 -75 -129 -21 -9 -69 -14 -125
-14 l-90 0 0 141 0 141 103 -4 c56 -3 115 -11 130 -18z"/>
<path d="M3040 1754 l0 -446 228 4 c212 3 230 5 277 26 28 13 63 35 78 50 110
104 91 308 -33 370 l-42 20 27 18 c80 52 106 194 53 286 -57 96 -130 118 -395
118 l-193 0 0 -446z m390 288 c50 -24 71 -86 47 -136 -26 -57 -57 -70 -169
-74 l-98 -4 0 116 0 116 93 0 c68 0 101 -5 127 -18z m61 -382 c50 -60 34 -161
-31 -195 -21 -11 -60 -15 -140 -15 l-110 0 0 126 0 126 126 -4 126 -3 29 -35z"/>
<path d="M5160 1755 l0 -445 85 0 86 0 -3 314 c-2 173 0 312 5 309 4 -2 18
-25 32 -51 13 -26 105 -164 203 -307 l180 -260 86 -3 86 -3 0 446 0 446 -82
-3 -83 -3 0 -316 0 -316 -46 76 c-36 62 -298 449 -364 539 -14 20 -24 22 -100
22 l-85 0 0 -445z"/>
<path d="M6250 1755 l0 -445 85 0 85 0 0 318 0 317 38 -65 c21 -36 116 -179
212 -317 l173 -253 84 0 83 0 0 445 0 445 -80 0 -80 0 0 -322 0 -323 -43 75
c-24 41 -77 123 -118 182 -41 59 -117 170 -169 247 l-95 140 -87 1 -88 0 0
-445z"/>
<path d="M7350 1755 l0 -445 290 0 291 0 -3 68 -3 67 -202 3 -203 2 0 120 0
120 155 0 155 0 0 70 0 70 -155 0 -155 0 0 115 0 115 190 0 190 0 0 70 0 70
-275 0 -275 0 0 -445z"/>
<path d="M7634 1078 c-20 -35 -43 -73 -51 -85 -13 -23 -13 -23 56 -23 l69 0
58 73 c31 39 62 78 67 85 7 9 -9 12 -76 12 l-86 0 -37 -62z"/>
<path d="M24 906 c-3 -8 -4 -156 -2 -328 5 -370 7 -379 99 -469 61 -61 131
-92 235 -105 76 -9 188 12 256 48 66 35 96 67 136 142 l27 51 3 338 3 337 -86
0 -85 0 0 -312 c0 -291 -1 -314 -20 -352 -55 -114 -248 -140 -341 -47 -53 53
-59 96 -59 426 l0 285 -80 0 c-61 0 -82 -4 -86 -14z"/>
<path d="M5373 902 c-111 -40 -175 -116 -181 -217 -2 -35 1 -79 7 -98 23 -68
108 -129 285 -203 90 -37 136 -80 136 -125 0 -119 -168 -145 -313 -48 -25 17
-50 28 -55 26 -4 -3 -25 -31 -46 -61 l-38 -56 23 -19 c80 -66 214 -106 325
-98 94 7 164 38 214 95 45 50 60 93 60 170 0 125 -61 180 -320 288 -69 29
-110 70 -110 109 0 104 143 138 281 67 48 -25 65 -29 71 -20 18 27 58 108 58
118 0 6 -35 28 -77 48 -70 33 -87 37 -173 39 -73 3 -107 -1 -147 -15z"/>
<path d="M1060 463 l0 -448 86 3 85 4 -3 318 -3 319 32 -57 c18 -31 112 -175
210 -319 l178 -261 88 -4 87 -3 0 448 0 447 -86 0 -85 0 3 -320 c2 -176 2
-320 1 -320 -2 0 -12 19 -24 42 -20 40 -77 125 -306 461 l-94 137 -85 0 -84 0
0 -447z"/>
<path d="M2120 466 l0 -445 85 -3 85 -3 0 448 0 447 -85 0 -85 0 0 -444z"/>
<path d="M2473 898 c2 -7 78 -208 168 -445 l164 -433 88 0 c48 0 87 1 87 3 0
2 74 199 165 437 91 238 165 437 165 442 0 4 -40 8 -88 8 l-89 0 -111 -317
c-61 -175 -115 -334 -120 -353 -10 -39 -9 -42 -45 75 -25 83 -148 437 -187
538 l-21 57 -91 0 c-68 0 -89 -3 -85 -12z"/>
<path d="M3500 465 l0 -445 285 0 285 0 0 70 0 70 -205 0 -206 0 3 118 3 117
158 3 157 3 0 64 0 64 -157 3 -158 3 0 115 0 115 193 3 192 2 0 70 0 70 -275
0 -275 0 0 -445z"/>
<path d="M4318 904 c-5 -4 -8 -205 -8 -446 l0 -438 85 0 85 0 0 165 0 166 82
-3 83 -3 90 -162 90 -163 92 0 c51 0 93 2 93 4 0 3 -47 87 -105 188 -64 111
-101 184 -94 187 25 8 91 77 112 115 31 59 31 193 0 252 -27 51 -94 110 -142
125 -42 13 -452 25 -463 13z m400 -158 c59 -30 79 -119 44 -185 -30 -55 -71
-71 -184 -71 l-98 0 0 141 0 142 103 -5 c70 -3 112 -10 135 -22z"/>
<path d="M6030 465 l0 -445 85 0 85 0 -2 443 -3 442 -82 3 -83 3 0 -446z"/>
<path d="M6387 903 c-4 -3 -7 -35 -7 -70 l0 -63 155 0 155 0 0 -375 0 -375 85
0 85 0 0 375 0 375 150 0 150 0 0 70 0 70 -383 0 c-211 0 -387 -3 -390 -7z"/>
<path d="M7350 465 l0 -445 290 0 291 0 -3 67 -3 68 -202 3 -203 2 0 120 0
120 155 0 155 0 0 65 0 65 -155 0 -155 0 0 120 0 120 195 0 196 0 -3 68 -3 67
-277 3 -278 2 0 -445z"/>
</g>
</svg>
