<?xml version="1.0" ?><!DOCTYPE svg  PUBLIC '-//W3C//DTD SVG 1.1//EN'  'http://www.w3.org/Graphics/SVG/1.1/DTD/svg11.dtd'><svg height="322px" style="enable-background:new 0 0 324.635 322;" version="1.1" viewBox="0 0 324.635 322" width="324.635px" xml:space="preserve" xmlns="http://www.w3.org/2000/svg" xmlns:xlink="http://www.w3.org/1999/xlink"><g id="Layer_295"><g><g><rect height="107.25" style="fill:#ED4F3E;" width="31.385" x="48.342" y="31.75"/><rect height="28.047" style="fill:#FFFFFF;" width="13.037" x="57.516" y="47.25"/><line style="fill:none;stroke:#30241C;stroke-width:4;stroke-miterlimit:10;" x1="57.516" x2="70.553" y1="119.667" y2="119.667"/><line style="fill:none;stroke:#30241C;stroke-width:4;stroke-miterlimit:10;" x1="57.516" x2="70.553" y1="110" y2="110"/><line style="fill:none;stroke:#30241C;stroke-width:4;stroke-miterlimit:10;" x1="57.516" x2="70.553" y1="100.333" y2="100.333"/><rect height="107" style="fill:#ED4F3E;" width="31.385" x="151.493" y="32"/><rect height="12.047" style="fill:#FFFFFF;" width="13.037" x="160.667" y="47.5"/><line style="fill:none;stroke:#30241C;stroke-width:4;stroke-miterlimit:10;" x1="160.667" x2="173.704" y1="110" y2="110"/><rect height="123.25" style="fill:#64CDF2;" width="31.385" x="79.727" y="15.75"/><rect height="28.047" style="fill:#FFFFFF;" width="13.037" x="88.9" y="31.25"/><line style="fill:none;stroke:#30241C;stroke-width:4;stroke-miterlimit:10;" x1="88.9" x2="101.938" y1="119.667" y2="119.667"/><line style="fill:none;stroke:#30241C;stroke-width:4;stroke-miterlimit:10;" x1="88.9" x2="101.938" y1="110" y2="110"/><line style="fill:none;stroke:#30241C;stroke-width:4;stroke-miterlimit:10;" x1="88.9" x2="101.938" y1="100.333" y2="100.333"/><rect height="91.5" style="fill:#BAC4C6;" width="31.385" x="243.596" y="47.5"/><rect height="28.047" style="fill:#ED4F3E;" width="13.037" x="252.77" y="63"/><line style="fill:none;stroke:#30241C;stroke-width:4;stroke-miterlimit:10;" x1="265.807" x2="252.77" y1="119.667" y2="119.667"/><line style="fill:none;stroke:#30241C;stroke-width:4;stroke-miterlimit:10;" x1="265.807" x2="252.77" y1="110" y2="110"/><line style="fill:none;stroke:#30241C;stroke-width:4;stroke-miterlimit:10;" x1="265.807" x2="252.77" y1="100.333" y2="100.333"/><rect height="107.5" style="fill:#D3DBDD;" width="31.385" x="212.211" y="31.5"/><rect height="28.047" style="fill:#3AB1CC;" width="13.037" x="221.385" y="47"/><line style="fill:none;stroke:#30241C;stroke-width:4;stroke-miterlimit:10;" x1="234.422" x2="221.385" y1="119.667" y2="119.667"/><line style="fill:none;stroke:#30241C;stroke-width:4;stroke-miterlimit:10;" x1="234.422" x2="221.385" y1="110" y2="110"/><line style="fill:none;stroke:#30241C;stroke-width:4;stroke-miterlimit:10;" x1="234.422" x2="221.385" y1="100.333" y2="100.333"/><rect height="131.25" style="fill:#3AB1CC;" width="20.19" x="111.111" y="7.75"/><rect height="20.297" style="fill:#ED4F3E;" width="20.19" x="111.111" y="23.25"/><line style="fill:none;stroke:#30241C;stroke-width:4;stroke-miterlimit:10;" x1="111.111" x2="131.302" y1="119.667" y2="119.667"/><line style="fill:none;stroke:#30241C;stroke-width:4;stroke-miterlimit:10;" x1="111.111" x2="131.302" y1="110" y2="110"/><line style="fill:none;stroke:#30241C;stroke-width:4;stroke-miterlimit:10;" x1="111.111" x2="131.302" y1="100.333" y2="100.333"/><rect height="139" style="fill:#D3DBDD;" width="20.191" x="131.302"/><rect height="28.047" style="fill:#BAC4C6;" width="20.191" x="131.302" y="15.5"/><line style="fill:none;stroke:#30241C;stroke-width:4;stroke-miterlimit:10;" x1="131.302" x2="151.493" y1="119.667" y2="119.667"/><line style="fill:none;stroke:#30241C;stroke-width:4;stroke-miterlimit:10;" x1="131.302" x2="151.493" y1="110" y2="110"/><line style="fill:none;stroke:#30241C;stroke-width:4;stroke-miterlimit:10;" x1="131.302" x2="151.493" y1="100.333" y2="100.333"/><rect height="128.5" style="fill:#3AB1CC;" width="15.228" x="181.755" y="10.5"/><rect height="17.547" style="fill:#D3DBDD;" width="15.228" x="181.755" y="26"/><line style="fill:none;stroke:#30241C;stroke-width:4;stroke-miterlimit:10;" x1="181.755" x2="196.982" y1="119.667" y2="119.667"/><line style="fill:none;stroke:#30241C;stroke-width:4;stroke-miterlimit:10;" x1="181.755" x2="196.982" y1="110" y2="110"/><line style="fill:none;stroke:#30241C;stroke-width:4;stroke-miterlimit:10;" x1="181.755" x2="196.982" y1="100.333" y2="100.333"/><rect height="139" style="fill:#ED4F3E;" width="15.229" x="196.982"/><rect height="28.047" style="fill:#64CDF2;" width="15.229" x="196.982" y="15.5"/></g><rect height="96" style="fill:none;stroke:#30241C;stroke-width:4;stroke-miterlimit:10;" width="320" x="2" y="224"/><rect height="8.763" style="fill:#64CDF2;" width="8.763" x="17.047" y="242"/><rect height="8.763" style="fill:none;stroke:#30241C;stroke-width:4;stroke-miterlimit:10;" width="8.764" x="35.668" y="242"/><rect height="8.763" style="fill:none;stroke:#30241C;stroke-width:4;stroke-miterlimit:10;" width="8.764" x="52.464" y="242"/><rect height="8.763" style="fill:none;stroke:#30241C;stroke-width:4;stroke-miterlimit:10;" width="8.763" x="70.538" y="242"/><rect height="8.763" style="fill:none;stroke:#30241C;stroke-width:4;stroke-miterlimit:10;" width="8.763" x="87.334" y="242"/><rect height="8.763" style="fill:none;stroke:#30241C;stroke-width:4;stroke-miterlimit:10;" width="8.763" x="105.956" y="242"/><rect height="8.763" style="fill:none;stroke:#30241C;stroke-width:4;stroke-miterlimit:10;" width="8.763" x="122.752" y="242"/><rect height="8.763" style="fill:none;stroke:#30241C;stroke-width:4;stroke-miterlimit:10;" width="8.764" x="140.552" y="242"/><rect height="8.763" style="fill:none;stroke:#30241C;stroke-width:4;stroke-miterlimit:10;" width="8.763" x="157.348" y="242"/><rect height="8.763" style="fill:none;stroke:#30241C;stroke-width:4;stroke-miterlimit:10;" width="8.764" x="175.97" y="242"/><rect height="8.763" style="fill:none;stroke:#30241C;stroke-width:4;stroke-miterlimit:10;" width="8.764" x="192.766" y="242"/><rect height="8.763" style="fill:none;stroke:#30241C;stroke-width:4;stroke-miterlimit:10;" width="8.765" x="210.839" y="242"/><rect height="8.763" style="fill:none;stroke:#30241C;stroke-width:4;stroke-miterlimit:10;" width="8.764" x="227.635" y="242"/><rect height="8.763" style="fill:none;stroke:#30241C;stroke-width:4;stroke-miterlimit:10;" width="8.763" x="246.258" y="242"/><rect height="8.763" style="fill:none;stroke:#30241C;stroke-width:4;stroke-miterlimit:10;" width="8.763" x="263.053" y="242"/><rect height="8.763" style="fill:none;stroke:#30241C;stroke-width:4;stroke-miterlimit:10;" width="8.763" x="280.031" y="242"/><rect height="8.763" style="fill:none;stroke:#30241C;stroke-width:4;stroke-miterlimit:10;" width="8.763" x="298.654" y="242"/><rect height="8.764" style="fill:none;stroke:#30241C;stroke-width:4;stroke-miterlimit:10;" width="8.763" x="26.769" y="259.709"/><rect height="8.764" style="fill:none;stroke:#30241C;stroke-width:4;stroke-miterlimit:10;" width="8.763" x="43.564" y="259.709"/><rect height="8.764" style="fill:none;stroke:#30241C;stroke-width:4;stroke-miterlimit:10;" width="8.762" x="61.639" y="259.709"/><rect height="8.764" style="fill:none;stroke:#30241C;stroke-width:4;stroke-miterlimit:10;" width="8.764" x="78.434" y="259.709"/><rect height="8.764" style="fill:none;stroke:#30241C;stroke-width:4;stroke-miterlimit:10;" width="8.764" x="97.056" y="259.709"/><rect height="8.764" style="fill:none;stroke:#30241C;stroke-width:4;stroke-miterlimit:10;" width="8.763" x="113.852" y="259.709"/><rect height="8.764" style="fill:none;stroke:#30241C;stroke-width:4;stroke-miterlimit:10;" width="8.763" x="131.652" y="259.709"/><rect height="8.764" style="fill:none;stroke:#30241C;stroke-width:4;stroke-miterlimit:10;" width="8.764" x="148.447" y="259.709"/><rect height="8.764" style="fill:none;stroke:#30241C;stroke-width:4;stroke-miterlimit:10;" width="8.764" x="167.069" y="259.709"/><rect height="8.764" style="fill:none;stroke:#30241C;stroke-width:4;stroke-miterlimit:10;" width="8.764" x="183.865" y="259.709"/><rect height="8.764" style="fill:none;stroke:#30241C;stroke-width:4;stroke-miterlimit:10;" width="8.764" x="201.939" y="259.709"/><rect height="8.764" style="fill:none;stroke:#30241C;stroke-width:4;stroke-miterlimit:10;" width="8.764" x="218.735" y="259.709"/><rect height="8.764" style="fill:none;stroke:#30241C;stroke-width:4;stroke-miterlimit:10;" width="8.764" x="237.357" y="259.709"/><rect height="8.764" style="fill:none;stroke:#30241C;stroke-width:4;stroke-miterlimit:10;" width="8.763" x="254.152" y="259.709"/><rect height="8.764" style="fill:none;stroke:#30241C;stroke-width:4;stroke-miterlimit:10;" width="8.763" x="271.131" y="259.709"/><rect height="8.764" style="fill:none;stroke:#30241C;stroke-width:4;stroke-miterlimit:10;" width="8.764" x="35.668" y="276.96"/><rect height="8.764" style="fill:none;stroke:#30241C;stroke-width:4;stroke-miterlimit:10;" width="8.764" x="52.464" y="276.96"/><rect height="8.764" style="fill:none;stroke:#30241C;stroke-width:4;stroke-miterlimit:10;" width="8.763" x="70.538" y="276.96"/><rect height="8.764" style="fill:none;stroke:#30241C;stroke-width:4;stroke-miterlimit:10;" width="8.763" x="87.334" y="276.96"/><rect height="8.764" style="fill:none;stroke:#30241C;stroke-width:4;stroke-miterlimit:10;" width="8.763" x="105.956" y="276.96"/><rect height="8.764" style="fill:none;stroke:#30241C;stroke-width:4;stroke-miterlimit:10;" width="8.763" x="122.752" y="276.96"/><rect height="8.764" style="fill:none;stroke:#30241C;stroke-width:4;stroke-miterlimit:10;" width="8.764" x="140.552" y="276.96"/><rect height="8.764" style="fill:none;stroke:#30241C;stroke-width:4;stroke-miterlimit:10;" width="8.763" x="157.348" y="276.96"/><rect height="8.764" style="fill:none;stroke:#30241C;stroke-width:4;stroke-miterlimit:10;" width="8.764" x="175.97" y="276.96"/><rect height="8.764" style="fill:none;stroke:#30241C;stroke-width:4;stroke-miterlimit:10;" width="8.764" x="192.766" y="276.96"/><rect height="8.764" style="fill:none;stroke:#30241C;stroke-width:4;stroke-miterlimit:10;" width="8.765" x="210.839" y="276.96"/><rect height="8.764" style="fill:none;stroke:#30241C;stroke-width:4;stroke-miterlimit:10;" width="8.764" x="227.635" y="276.96"/><rect height="8.764" style="fill:none;stroke:#30241C;stroke-width:4;stroke-miterlimit:10;" width="8.763" x="246.258" y="276.96"/><rect height="8.764" style="fill:none;stroke:#30241C;stroke-width:4;stroke-miterlimit:10;" width="8.763" x="263.053" y="276.96"/><rect height="8.764" style="fill:none;stroke:#30241C;stroke-width:4;stroke-miterlimit:10;" width="8.763" x="280.031" y="276.96"/><polygon points="300.161,259.709 298.654,259.709     289.754,259.709 289.754,268.473 298.654,268.473 298.654,285.724 307.417,285.724 307.417,259.709   " style="fill:none;stroke:#30241C;stroke-width:4;stroke-miterlimit:10;"/><rect height="8.763" style="fill:none;stroke:#30241C;stroke-width:4;stroke-miterlimit:10;" width="8.763" x="26.769" y="294.67"/><rect height="8.763" style="fill:none;stroke:#30241C;stroke-width:4;stroke-miterlimit:10;" width="8.763" x="43.564" y="294.67"/><rect height="8.763" style="fill:#ED4F3E;" width="165.86" x="61.639" y="294.67"/><rect height="8.763" style="fill:none;stroke:#30241C;stroke-width:4;stroke-miterlimit:10;" width="8.764" x="237.357" y="294.67"/><rect height="8.763" style="fill:none;stroke:#30241C;stroke-width:4;stroke-miterlimit:10;" width="8.763" x="254.152" y="294.67"/><rect height="8.763" style="fill:none;stroke:#30241C;stroke-width:4;stroke-miterlimit:10;" width="8.763" x="271.131" y="294.67"/><rect height="8.763" style="fill:none;stroke:#30241C;stroke-width:4;stroke-miterlimit:10;" width="8.763" x="289.754" y="294.67"/><path d="M146,223.333v-7.636c0,0,0-7.968-7.969-7.968    c-7.968,0-55.778,0-55.778,0s-7.968,0-7.968-7.97c0-7.968,7.968-7.968,7.968-7.968h39.842h112.213c0,0,8.327,0,8.327-7.969    c0-7.968-8.327-7.968-8.327-7.968H122.095c0,0-7.968,0-7.968-7.969s7.968-7.969,7.968-7.969h40.54c0,0,7.969,0,7.969-7.969" style="fill:none;stroke:#30241C;stroke-width:4;stroke-miterlimit:10;"/><rect height="12.949" style="fill:none;stroke:#30241C;stroke-width:4;stroke-miterlimit:10;" width="320" x="2.635" y="139"/></g></g><g id="Layer_1"/></svg>